<svg width="224" height="49" viewBox="0 0 224 49" fill="none" xmlns="http://www.w3.org/2000/svg">
<path d="M16.7727 20.5635H31.9242L29.697 30.1646H14.8485L14.8905 29.8833L11.1364 48.5H0L10.4273 0.5H20.8183L16.7727 20.5635Z" fill="url(#paint0_linear_134_1661)"/>
<path d="M38.6061 9.48521H49L43.0606 39.7658H31.9242L38.6061 9.48521Z" fill="url(#paint1_linear_134_1661)"/>
<path d="M69 0.5V48.5" stroke="#D6DCE5" stroke-linecap="round"/>
<g clip-path="url(#clip0_134_1661)">
<path d="M92.0107 8.0496V14.5806H96.6838V8.0496H98.1377V22.7286H96.6838V16.0716H92.0107V22.7286H90.5777V8.0496H92.0107ZM106.832 9.6666H106.811C106.534 10.9406 106.258 12.2006 105.981 13.4466C105.718 14.6786 105.448 15.9316 105.171 17.2056H108.431L106.832 9.6666ZM103.904 22.7286H102.491L105.814 8.0286H107.788L111.111 22.7286H109.719L108.805 18.7176H104.797L103.904 22.7286ZM118.959 9.3306C118.738 9.3306 118.502 9.3586 118.253 9.4146C118.004 9.4566 117.775 9.5056 117.568 9.5616C117.318 9.6316 117.076 9.7086 116.841 9.7926V15.3576H118.959C119.901 15.3576 120.655 15.0776 121.223 14.5176C121.791 13.9576 122.075 13.1526 122.075 12.1026C122.075 11.5986 121.998 11.1716 121.846 10.8216C121.694 10.4576 121.479 10.1706 121.202 9.9606C120.925 9.7366 120.593 9.5756 120.205 9.4776C119.831 9.3796 119.416 9.3306 118.959 9.3306ZM123.757 22.7496H122.345L119.811 16.8066C119.7 16.8206 119.582 16.8346 119.458 16.8486C119.333 16.8486 119.215 16.8486 119.105 16.8486H116.82V22.7496H115.449V8.7006C115.837 8.5466 116.238 8.4066 116.654 8.2806C117.014 8.1686 117.408 8.0706 117.838 7.9866C118.267 7.8886 118.696 7.8396 119.125 7.8396C119.707 7.8396 120.261 7.9376 120.787 8.1336C121.313 8.3156 121.777 8.5956 122.178 8.9736C122.58 9.3376 122.898 9.7856 123.134 10.3176C123.383 10.8356 123.508 11.4306 123.508 12.1026C123.508 12.5646 123.452 13.0196 123.341 13.4676C123.231 13.9016 123.071 14.3146 122.864 14.7066C122.67 15.0846 122.428 15.4206 122.137 15.7146C121.86 16.0086 121.555 16.2396 121.223 16.4076L123.757 22.7496ZM133.038 16.9956L135.738 8.0496H137.752V22.7496H136.382V10.7586H136.361L133.972 18.5076H131.999L129.632 10.8006V22.7496H128.261V8.0496H130.296L132.955 16.9956H133.038ZM149.682 11.8296C149.682 11.3116 149.585 10.8986 149.391 10.5906C149.197 10.2686 148.955 10.0236 148.664 9.8556C148.387 9.6736 148.096 9.5546 147.792 9.4986C147.487 9.4426 147.231 9.4146 147.023 9.4146C146.816 9.4146 146.559 9.4496 146.255 9.5196C145.95 9.5756 145.659 9.6946 145.382 9.8766C145.106 10.0446 144.863 10.2896 144.656 10.6116C144.462 10.9196 144.365 11.3326 144.365 11.8506V19.0746C144.365 19.6066 144.462 20.0266 144.656 20.3346C144.863 20.6286 145.106 20.8596 145.382 21.0276C145.659 21.1816 145.95 21.2796 146.255 21.3216C146.559 21.3636 146.816 21.3846 147.023 21.3846C147.231 21.3846 147.487 21.3636 147.792 21.3216C148.096 21.2656 148.387 21.1606 148.664 21.0066C148.955 20.8386 149.197 20.6076 149.391 20.3136C149.585 20.0056 149.682 19.5926 149.682 19.0746V11.8296ZM151.073 19.0746C151.073 19.3826 151.011 19.7606 150.886 20.2086C150.776 20.6426 150.561 21.0626 150.242 21.4686C149.938 21.8746 149.522 22.2246 148.996 22.5186C148.47 22.7986 147.806 22.9386 147.002 22.9386C146.213 22.9386 145.562 22.7986 145.05 22.5186C144.538 22.2246 144.122 21.8746 143.804 21.4686C143.499 21.0626 143.285 20.6426 143.16 20.2086C143.036 19.7606 142.973 19.3826 142.973 19.0746V11.8506C142.973 11.5426 143.029 11.1646 143.139 10.7166C143.264 10.2546 143.479 9.8136 143.783 9.3936C144.088 8.9736 144.503 8.6166 145.029 8.3226C145.556 8.0146 146.22 7.8606 147.023 7.8606C147.812 7.8606 148.463 8.0076 148.976 8.3016C149.502 8.5956 149.917 8.9526 150.222 9.3726C150.54 9.7926 150.762 10.2336 150.886 10.6956C151.011 11.1436 151.073 11.5216 151.073 11.8296V19.0746ZM164.667 8.0496V22.7496H162.466L157.627 10.7586H157.606V22.7496H156.277V8.0496H157.98L163.276 21.0486H163.317V8.0496H164.667ZM173.882 16.1976H173.653V22.7496H172.303V16.1976H172.137L168.773 8.0496H170.185L172.989 14.6856L175.793 8.0496H177.205L173.882 16.1976ZM97.39 27.8316H94.1292V41.1246H92.7377V27.8316H89.373V26.4246H97.39V27.8316ZM107.647 26.4246V27.8946H103.057V32.9976H106.65V34.4676H103.057V39.6126H107.689V41.1036H101.624V26.4246H107.647ZM113.367 37.1136C113.367 37.5336 113.436 37.9116 113.574 38.2476C113.713 38.5836 113.9 38.8706 114.135 39.1086C114.37 39.3466 114.64 39.5356 114.945 39.6756C115.263 39.8016 115.589 39.8716 115.921 39.8856C116.018 39.8856 116.115 39.8786 116.212 39.8646C116.309 39.8506 116.427 39.8226 116.565 39.7806C116.717 39.7246 116.904 39.6546 117.126 39.5706C117.347 39.4866 117.631 39.3746 117.977 39.2346L118.642 38.9406L119.203 40.3896L117.396 41.0406C117.16 41.1246 116.904 41.1946 116.627 41.2506C116.35 41.3066 116.115 41.3346 115.921 41.3346C115.395 41.3346 114.89 41.2436 114.405 41.0616C113.934 40.8656 113.519 40.5926 113.159 40.2426C112.799 39.8786 112.515 39.4446 112.307 38.9406C112.1 38.4226 111.996 37.8486 111.996 37.2186V30.5616C111.996 29.9876 112.1 29.4416 112.307 28.9236C112.515 28.3916 112.743 27.9856 112.993 27.7056C113.214 27.4396 113.408 27.2366 113.574 27.0966C113.754 26.9566 113.934 26.8306 114.114 26.7186L114.218 26.6766L114.156 26.6976C114.308 26.6136 114.523 26.5156 114.8 26.4036C115.09 26.2776 115.478 26.2146 115.963 26.2146C116.17 26.2146 116.413 26.2496 116.69 26.3196C116.967 26.3896 117.209 26.4596 117.417 26.5296L119.161 27.2016L118.683 28.5666L116.773 27.8316C116.634 27.7756 116.496 27.7266 116.357 27.6846C116.219 27.6426 116.094 27.6216 115.983 27.6216C115.637 27.6216 115.305 27.7056 114.987 27.8736C114.682 28.0416 114.412 28.2656 114.177 28.5456C113.941 28.8116 113.754 29.1196 113.616 29.4696C113.477 29.8196 113.408 30.1836 113.408 30.5616L113.367 37.1136ZM125.13 26.4246V32.9556H129.803V26.4246H131.257V41.1036H129.803V34.4466H125.13V41.1036H123.697V26.4246H125.13ZM145.082 26.4246V41.1246H142.88L138.041 29.1336H138.02V41.1246H136.691V26.4246H138.394L143.69 39.4236H143.732V26.4246H145.082ZM156.996 30.2046C156.996 29.6866 156.899 29.2736 156.706 28.9656C156.512 28.6436 156.269 28.3986 155.979 28.2306C155.702 28.0486 155.411 27.9296 155.106 27.8736C154.802 27.8176 154.546 27.7896 154.338 27.7896C154.13 27.7896 153.874 27.8246 153.569 27.8946C153.265 27.9506 152.974 28.0696 152.697 28.2516C152.42 28.4196 152.178 28.6646 151.97 28.9866C151.776 29.2946 151.679 29.7076 151.679 30.2256V37.4496C151.679 37.9816 151.776 38.4016 151.97 38.7096C152.178 39.0036 152.42 39.2346 152.697 39.4026C152.974 39.5566 153.265 39.6546 153.569 39.6966C153.874 39.7386 154.13 39.7596 154.338 39.7596C154.546 39.7596 154.802 39.7386 155.106 39.6966C155.411 39.6406 155.702 39.5356 155.979 39.3816C156.269 39.2136 156.512 38.9826 156.706 38.6886C156.899 38.3806 156.996 37.9676 156.996 37.4496V30.2046ZM158.388 37.4496C158.388 37.7576 158.326 38.1356 158.201 38.5836C158.09 39.0176 157.876 39.4376 157.557 39.8436C157.253 40.2496 156.837 40.5996 156.311 40.8936C155.785 41.1736 155.12 41.3136 154.317 41.3136C153.528 41.3136 152.877 41.1736 152.365 40.8936C151.853 40.5996 151.437 40.2496 151.119 39.8436C150.814 39.4376 150.599 39.0176 150.475 38.5836C150.35 38.1356 150.288 37.7576 150.288 37.4496V30.2256C150.288 29.9176 150.343 29.5396 150.454 29.0916C150.579 28.6296 150.793 28.1886 151.098 27.7686C151.403 27.3486 151.818 26.9916 152.344 26.6976C152.87 26.3896 153.535 26.2356 154.338 26.2356C155.127 26.2356 155.778 26.3826 156.29 26.6766C156.816 26.9706 157.232 27.3276 157.536 27.7476C157.855 28.1676 158.076 28.6086 158.201 29.0706C158.326 29.5186 158.388 29.8966 158.388 30.2046V37.4496ZM163.591 26.4246H165.024V39.6756H169.552V41.1246H163.591V26.4246ZM180.103 30.2046C180.103 29.6866 180.007 29.2736 179.813 28.9656C179.619 28.6436 179.377 28.3986 179.086 28.2306C178.809 28.0486 178.518 27.9296 178.213 27.8736C177.909 27.8176 177.653 27.7896 177.445 27.7896C177.237 27.7896 176.981 27.8246 176.677 27.8946C176.372 27.9506 176.081 28.0696 175.804 28.2516C175.528 28.4196 175.285 28.6646 175.078 28.9866C174.884 29.2946 174.787 29.7076 174.787 30.2256V37.4496C174.787 37.9816 174.884 38.4016 175.078 38.7096C175.285 39.0036 175.528 39.2346 175.804 39.4026C176.081 39.5566 176.372 39.6546 176.677 39.6966C176.981 39.7386 177.237 39.7596 177.445 39.7596C177.653 39.7596 177.909 39.7386 178.213 39.6966C178.518 39.6406 178.809 39.5356 179.086 39.3816C179.377 39.2136 179.619 38.9826 179.813 38.6886C180.007 38.3806 180.103 37.9676 180.103 37.4496V30.2046ZM181.495 37.4496C181.495 37.7576 181.433 38.1356 181.308 38.5836C181.197 39.0176 180.983 39.4376 180.664 39.8436C180.36 40.2496 179.944 40.5996 179.418 40.8936C178.892 41.1736 178.227 41.3136 177.424 41.3136C176.635 41.3136 175.984 41.1736 175.472 40.8936C174.96 40.5996 174.545 40.2496 174.226 39.8436C173.921 39.4376 173.707 39.0176 173.582 38.5836C173.458 38.1356 173.395 37.7576 173.395 37.4496V30.2256C173.395 29.9176 173.451 29.5396 173.561 29.0916C173.686 28.6296 173.901 28.1886 174.205 27.7686C174.51 27.3486 174.925 26.9916 175.451 26.6976C175.977 26.3896 176.642 26.2356 177.445 26.2356C178.234 26.2356 178.885 26.3826 179.397 26.6766C179.923 26.9706 180.339 27.3276 180.643 27.7476C180.962 28.1676 181.183 28.6086 181.308 29.0706C181.433 29.5186 181.495 29.8966 181.495 30.2046V37.4496ZM187.882 37.3446C187.882 37.7086 187.952 38.0446 188.09 38.3526C188.229 38.6606 188.409 38.9336 188.63 39.1716C188.865 39.4096 189.129 39.5986 189.419 39.7386C189.724 39.8646 190.042 39.9276 190.375 39.9276C190.513 39.9276 190.693 39.9066 190.915 39.8646C191.15 39.8086 191.496 39.6616 191.953 39.4236V35.4546H193.386V40.3266C192.569 40.7746 191.898 41.0546 191.372 41.1666C190.859 41.2786 190.506 41.3346 190.312 41.3346C189.745 41.3346 189.225 41.2226 188.755 40.9986C188.284 40.7606 187.875 40.4526 187.529 40.0746C187.183 39.6826 186.913 39.2276 186.719 38.7096C186.539 38.1916 186.449 37.6386 186.449 37.0506V30.4986C186.505 29.1686 186.879 28.1256 187.571 27.3696C188.277 26.5996 189.205 26.2146 190.354 26.2146C190.562 26.2286 190.804 26.2636 191.081 26.3196C191.358 26.3756 191.607 26.4456 191.829 26.5296L193.241 27.0756L192.742 28.5456L191.164 27.9366C190.845 27.7966 190.575 27.7266 190.354 27.7266C190.022 27.7266 189.703 27.8036 189.399 27.9576C189.094 28.1116 188.831 28.3146 188.609 28.5666C188.388 28.8186 188.208 29.1126 188.069 29.4486C187.945 29.7846 187.882 30.1346 187.882 30.4986V37.3446ZM198.313 26.4246H199.663V41.1246H198.313V26.4246ZM211.123 26.4246V27.8946H206.533V32.9976H210.126V34.4676H206.533V39.6126H211.165V41.1036H205.1V26.4246H211.123ZM223.425 36.7566C223.425 37.3446 223.321 37.9046 223.113 38.4366C222.905 38.9686 222.622 39.4306 222.262 39.8226C221.902 40.2146 221.479 40.5296 220.995 40.7676C220.51 40.9916 219.984 41.1036 219.416 41.1036C218.876 41.1036 218.343 41.0336 217.817 40.8936C217.291 40.7396 216.82 40.5716 216.405 40.3896C215.92 40.1796 215.463 39.9416 215.034 39.6756L215.532 38.2896C216.017 38.5416 216.488 38.7586 216.945 38.9406C217.346 39.1086 217.768 39.2626 218.211 39.4026C218.655 39.5286 219.049 39.5916 219.395 39.5916C219.755 39.5916 220.095 39.5216 220.413 39.3816C220.732 39.2276 221.002 39.0246 221.223 38.7726C221.458 38.5206 221.638 38.2266 221.763 37.8906C221.902 37.5546 221.971 37.1906 221.971 36.7986C221.971 36.4066 221.881 36.0776 221.701 35.8116C221.521 35.5456 221.285 35.3286 220.995 35.1606C220.718 34.9786 220.406 34.8386 220.06 34.7406C219.728 34.6426 219.402 34.5656 219.084 34.5096C218.558 34.4256 218.066 34.2786 217.609 34.0686C217.152 33.8446 216.751 33.5646 216.405 33.2286C216.072 32.8926 215.802 32.5006 215.595 32.0526C215.401 31.5906 215.304 31.0726 215.304 30.4986C215.304 29.9106 215.408 29.3576 215.615 28.8396C215.823 28.3216 216.107 27.8736 216.467 27.4956C216.827 27.1036 217.242 26.7956 217.713 26.5716C218.198 26.3336 218.71 26.2146 219.25 26.2146C219.582 26.2146 219.928 26.2566 220.288 26.3406C220.648 26.4106 220.988 26.4946 221.306 26.5926C221.666 26.7046 222.026 26.8306 222.386 26.9706L221.929 28.3986C221.611 28.2726 221.292 28.1606 220.974 28.0626C220.697 27.9786 220.399 27.9016 220.081 27.8316C219.776 27.7476 219.485 27.7056 219.208 27.7056C218.862 27.7056 218.537 27.7826 218.232 27.9366C217.928 28.0906 217.665 28.2936 217.443 28.5456C217.221 28.7976 217.048 29.0916 216.924 29.4276C216.799 29.7496 216.737 30.0856 216.737 30.4356C216.737 30.8416 216.82 31.1986 216.986 31.5066C217.152 31.8006 217.36 32.0526 217.609 32.2626C217.872 32.4726 218.156 32.6406 218.461 32.7666C218.765 32.8926 219.056 32.9836 219.333 33.0396C219.901 33.1376 220.434 33.2776 220.932 33.4596C221.431 33.6416 221.86 33.8796 222.22 34.1736C222.594 34.4676 222.885 34.8246 223.092 35.2446C223.314 35.6646 223.425 36.1686 223.425 36.7566Z" fill="white"/>
</g>
<defs>
<linearGradient id="paint0_linear_134_1661" x1="9.65149" y1="24.9926" x2="48.9999" y2="24.497" gradientUnits="userSpaceOnUse">
<stop stop-color="#00F69E"/>
<stop offset="0.557692" stop-color="#02B4E4"/>
<stop offset="1" stop-color="#0C72B5"/>
</linearGradient>
<linearGradient id="paint1_linear_134_1661" x1="9.65149" y1="24.9926" x2="48.9999" y2="24.497" gradientUnits="userSpaceOnUse">
<stop stop-color="#00F69E"/>
<stop offset="0.557692" stop-color="#02B4E4"/>
<stop offset="1" stop-color="#0C72B5"/>
</linearGradient>
<clipPath id="clip0_134_1661">
<rect width="135" height="35" fill="white" transform="translate(89 7)"/>
</clipPath>
</defs>
</svg>
