<svg width="28" height="28" viewBox="0 0 28 28" fill="none" xmlns="http://www.w3.org/2000/svg">
<path fill-rule="evenodd" clip-rule="evenodd" d="M23.8 14C23.8 14.5799 23.3299 15.05 22.75 15.05L7.85696 15.05L13.6778 20.5931C14.0958 20.995 14.1089 21.6597 13.7069 22.0777C13.305 22.4957 12.6403 22.5088 12.2223 22.1069L4.52229 14.7569C4.3164 14.5589 4.20005 14.2856 4.20005 14C4.20005 13.7144 4.3164 13.4411 4.52229 13.2431L12.2223 5.8931C12.6403 5.49117 13.305 5.5042 13.7069 5.92221C14.1089 6.34022 14.0958 7.00492 13.6778 7.40685L7.85696 12.95L22.75 12.95C23.3299 12.95 23.8 13.4201 23.8 14Z" fill="#18222F"/>
</svg>
