<svg width="48" height="48" viewBox="0 0 48 48" fill="none" xmlns="http://www.w3.org/2000/svg">
<path opacity="0.4" d="M32.38 4H15.64C8.34 4 4 8.33999 4 15.62V32.36C4 39.64 8.34 43.98 15.62 43.98H32.36C39.64 43.98 43.98 39.64 43.98 32.36V15.62C44 8.33999 39.66 4 32.38 4Z" fill="#0A7ABC"/>
<path d="M32.3799 4C32.42 4 32.4601 4.00169 32.5 4.00195V24.8398C32.5 26.1198 32.12 27.08 31.46 27.46C30.78 27.8599 29.6999 27.6603 28.5 26.9404L25.8604 25.3604C24.8404 24.7404 23.1596 24.7404 22.1396 25.3604L19.5 26.9404C18.3001 27.6603 17.22 27.8399 16.54 27.46C15.88 27.08 15.5 26.1198 15.5 24.8398V4.00195C15.5464 4.0016 15.593 4 15.6396 4H32.3799Z" fill="#0A7ABC"/>
</svg>
