<svg width="40" height="40" viewBox="0 0 40 40" fill="none" xmlns="http://www.w3.org/2000/svg">
<path opacity="0.4" d="M26.9832 3.33337H13.0333C6.94992 3.33337 3.33325 6.95004 3.33325 13.0167V26.9667C3.33325 33.0334 6.94992 36.65 13.0166 36.65H26.9666C33.0333 36.65 36.6499 33.0334 36.6499 26.9667V13.0167C36.6666 6.95004 33.0499 3.33337 26.9832 3.33337Z" fill="#ECF7FE"/>
<path d="M26.9834 3.33301C27.0167 3.33301 27.0499 3.33377 27.083 3.33398V20.7002C27.083 21.7668 26.7668 22.5671 26.2168 22.8838C25.6501 23.217 24.7499 23.0501 23.75 22.4502L21.5498 21.1338C20.6998 20.6171 19.3002 20.6171 18.4502 21.1338L16.25 22.4502C15.2501 23.0501 14.3499 23.2004 13.7832 22.8838C13.2332 22.5671 12.917 21.7668 12.917 20.7002V3.33496C12.9556 3.33467 12.9944 3.33301 13.0332 3.33301H26.9834Z" fill="#ECF7FE"/>
</svg>
