<svg width="40" height="40" viewBox="0 0 40 40" fill="none" xmlns="http://www.w3.org/2000/svg">
<path opacity="0.4" d="M11.2663 36.6666H28.733C33.333 36.6666 35.1663 33.8499 35.383 30.4166L36.2496 16.6499C36.483 13.0499 33.6163 9.99992 29.9996 9.99992C28.983 9.99992 28.0496 9.41659 27.583 8.51659L26.383 6.09992C25.6163 4.58325 23.6163 3.33325 21.9163 3.33325H18.0996C16.383 3.33325 14.383 4.58325 13.6163 6.09992L12.4163 8.51659C11.9496 9.41659 11.0163 9.99992 9.99963 9.99992C6.38296 9.99992 3.51629 13.0499 3.74963 16.6499L4.61629 30.4166C4.81629 33.8499 6.66629 36.6666 11.2663 36.6666Z" fill="#0A7ABC"/>
<path d="M22.5 14.5833H17.5C16.8167 14.5833 16.25 14.0166 16.25 13.3333C16.25 12.6499 16.8167 12.0833 17.5 12.0833H22.5C23.1833 12.0833 23.75 12.6499 23.75 13.3333C23.75 14.0166 23.1833 14.5833 22.5 14.5833Z" fill="#0A7ABC"/>
<path d="M20.0005 30.2166C23.1117 30.2166 25.6339 27.6945 25.6339 24.5833C25.6339 21.4721 23.1117 18.95 20.0005 18.95C16.8893 18.95 14.3672 21.4721 14.3672 24.5833C14.3672 27.6945 16.8893 30.2166 20.0005 30.2166Z" fill="#0A7ABC"/>
</svg>
