<svg width="40" height="40" viewBox="0 0 40 40" fill="none" xmlns="http://www.w3.org/2000/svg">
<path opacity="0.4" d="M27.0667 6.08337H12.9334C8.81673 6.08337 5.4834 9.43337 5.4834 13.5334V29.2167C5.4834 33.3167 8.8334 36.6667 12.9334 36.6667H27.0501C31.1667 36.6667 34.5001 33.3167 34.5001 29.2167V13.5334C34.5167 9.41671 31.1667 6.08337 27.0667 6.08337Z" fill="#ECF7FE"/>
<path d="M23.9167 3.33337H16.0833C14.35 3.33337 12.9333 4.73337 12.9333 6.46671V8.03337C12.9333 9.76671 14.3333 11.1667 16.0667 11.1667H23.9167C25.65 11.1667 27.05 9.76671 27.05 8.03337V6.46671C27.0667 4.73337 25.65 3.33337 23.9167 3.33337Z" fill="#ECF7FE"/>
<path d="M18.0166 28.25C17.6999 28.25 17.3833 28.1334 17.1333 27.8834L14.6333 25.3834C14.1499 24.9 14.1499 24.1 14.6333 23.6167C15.1166 23.1334 15.9166 23.1334 16.3999 23.6167L18.0166 25.2334L23.7999 19.45C24.2833 18.9667 25.0833 18.9667 25.5666 19.45C26.0499 19.9334 26.0499 20.7334 25.5666 21.2167L18.8999 27.8834C18.6666 28.1334 18.3333 28.25 18.0166 28.25Z" fill="#ECF7FE"/>
</svg>
