<svg width="48" height="48" viewBox="0 0 48 48" fill="none" xmlns="http://www.w3.org/2000/svg">
<path opacity="0.4" d="M36 37.72H34.48C32.88 37.72 31.36 38.34 30.24 39.46L26.82 42.84C25.26 44.38 22.72 44.38 21.16 42.84L17.74 39.46C16.62 38.34 15.08 37.72 13.5 37.72H12C8.68 37.72 6 35.06 6 31.78V9.95996C6 6.67996 8.68 4.02002 12 4.02002H36C39.32 4.02002 42 6.67996 42 9.95996V31.78C42 35.04 39.32 37.72 36 37.72Z" fill="#0A7ABC"/>
<path d="M33.1609 19.14C32.781 18.6 32.141 18.3 31.381 18.3H27.481C27.221 18.3 26.981 18.2 26.821 18C26.661 17.8 26.5809 17.54 26.6209 17.26L27.101 14.14C27.301 13.22 26.681 12.1599 25.761 11.8599C24.901 11.5399 23.881 11.9799 23.481 12.5799L19.601 18.3399V17.6199C19.601 16.2199 19.0009 15.64 17.5209 15.64H16.541C15.061 15.64 14.4609 16.2199 14.4609 17.6199V27.18C14.4609 28.58 15.061 29.16 16.541 29.16H17.5209C18.9209 29.16 19.5209 28.6199 19.5809 27.3399L22.5209 29.5999C22.9209 29.9999 23.8209 30.2199 24.4609 30.2199H28.1609C29.4409 30.2199 30.7209 29.2599 31.0009 28.0799L33.3409 20.9599C33.6009 20.3199 33.5409 19.66 33.1609 19.14Z" fill="#0A7ABC"/>
</svg>
