<svg width="48" height="48" viewBox="0 0 48 48" fill="none" xmlns="http://www.w3.org/2000/svg">
<path d="M37.5 16V20.2C36.62 20.08 35.62 20.02 34.5 20V16C34.5 9.7 32.72 5.5 24 5.5C15.28 5.5 13.5 9.7 13.5 16V20C12.38 20.02 11.38 20.08 10.5 20.2V16C10.5 10.2 11.9 2.5 24 2.5C36.1 2.5 37.5 10.2 37.5 16Z" fill="#0A7ABC"/>
<path opacity="0.4" d="M44 30V34C44 42 42 44 34 44H14C6 44 4 42 4 34V30C4 23.32 5.4 20.82 10.5 20.2C11.38 20.08 12.38 20.02 13.5 20H34.5C35.62 20.02 36.62 20.08 37.5 20.2C42.6 20.82 44 23.32 44 30Z" fill="#0A7ABC"/>
<path d="M16 34C15.74 34 15.48 33.94 15.24 33.84C14.98 33.74 14.78 33.6 14.58 33.42C14.22 33.04 14 32.52 14 32C14 31.74 14.06 31.48 14.16 31.24C14.26 31 14.4 30.78 14.58 30.58C14.78 30.4 14.98 30.26 15.24 30.16C15.98 29.84 16.86 30.02 17.42 30.58C17.6 30.78 17.74 31 17.84 31.24C17.94 31.48 18 31.74 18 32C18 32.52 17.78 33.04 17.42 33.42C17.04 33.78 16.52 34 16 34Z" fill="#0A7ABC"/>
<path d="M24 33.9999C23.46 33.9999 22.96 33.7799 22.58 33.4199C22.4 33.2199 22.26 32.9999 22.16 32.7599C22.06 32.5199 22 32.2599 22 31.9999C22 31.4599 22.22 30.9599 22.58 30.5799C23.32 29.8399 24.66 29.8399 25.42 30.5799C25.78 30.9599 26 31.4599 26 31.9999C26 32.2599 25.94 32.5199 25.84 32.7599C25.74 32.9999 25.6 33.2199 25.42 33.4199C25.04 33.7799 24.52 33.9999 24 33.9999Z" fill="#0A7ABC"/>
<path d="M32 33.9999C31.48 33.9999 30.96 33.7799 30.58 33.4199C30.22 33.0399 30 32.5399 30 31.9999C30 31.4599 30.22 30.9599 30.58 30.5799C31.34 29.8399 32.68 29.8399 33.42 30.5799C33.5 30.6799 33.58 30.7799 33.66 30.8999C33.74 30.9999 33.8 31.1199 33.84 31.2399C33.9 31.3599 33.94 31.4799 33.96 31.5999C33.98 31.7399 34 31.8799 34 31.9999C34 32.5199 33.78 33.0399 33.42 33.4199C33.04 33.7799 32.52 33.9999 32 33.9999Z" fill="#0A7ABC"/>
</svg>
