<svg width="48" height="48" viewBox="0 0 48 48" fill="none" xmlns="http://www.w3.org/2000/svg">
<path opacity="0.4" d="M18 4C12.76 4 8.5 8.26 8.5 13.5C8.5 18.64 12.52 22.8 17.76 22.98C17.92 22.96 18.08 22.96 18.2 22.98C18.24 22.98 18.26 22.98 18.3 22.98C18.32 22.98 18.32 22.98 18.34 22.98C23.46 22.8 27.48 18.64 27.5 13.5C27.5 8.26 23.24 4 18 4Z" fill="#0A7ABC"/>
<path d="M28.1599 28.3C22.5799 24.58 13.4799 24.58 7.85992 28.3C5.31992 30 3.91992 32.3 3.91992 34.76C3.91992 37.22 5.31992 39.5 7.83992 41.18C10.6399 43.06 14.3199 44 17.9999 44C21.6799 44 25.3599 43.06 28.1599 41.18C30.6799 39.48 32.0799 37.2 32.0799 34.72C32.0599 32.26 30.6799 29.98 28.1599 28.3Z" fill="#0A7ABC"/>
<path opacity="0.4" d="M39.9807 14.68C40.3007 18.56 37.5407 21.96 33.7207 22.42C33.7007 22.42 33.7007 22.42 33.6807 22.42H33.6207C33.5007 22.42 33.3807 22.42 33.2807 22.46C31.3407 22.56 29.5607 21.94 28.2207 20.8C30.2807 18.96 31.4607 16.2 31.2207 13.2C31.0807 11.58 30.5207 10.1 29.6807 8.83996C30.4407 8.45996 31.3207 8.21996 32.2207 8.13996C36.1407 7.79996 39.6407 10.72 39.9807 14.68Z" fill="#0A7ABC"/>
<path d="M43.9805 33.1801C43.8205 35.1201 42.5805 36.8001 40.5005 37.9401C38.5005 39.0401 35.9805 39.5601 33.4805 39.5001C34.9205 38.2001 35.7605 36.5801 35.9205 34.8601C36.1205 32.3801 34.9405 30.0001 32.5805 28.1001C31.2405 27.0401 29.6805 26.2001 27.9805 25.5801C32.4005 24.3001 37.9605 25.1601 41.3805 27.9201C43.2205 29.4001 44.1605 31.2601 43.9805 33.1801Z" fill="#0A7ABC"/>
</svg>
