<svg width="40" height="40" viewBox="0 0 40 40" fill="none" xmlns="http://www.w3.org/2000/svg">
<path opacity="0.4" d="M34.8504 18.5334C34.8504 26.6834 28.9337 34.3167 20.8504 36.5501C20.3004 36.7001 19.7004 36.7001 19.1504 36.5501C11.067 34.3167 5.15039 26.6834 5.15039 18.5334V11.2168C5.15039 9.85011 6.18375 8.30011 7.46708 7.78344L16.7504 3.98345C18.8337 3.13345 21.1837 3.13345 23.267 3.98345L32.5504 7.78344C33.8171 8.30011 34.8671 9.85011 34.8671 11.2168L34.8504 18.5334Z" fill="#0A7ABC"/>
<path d="M24.1673 17.4999C24.1673 15.1999 22.3007 13.3333 20.0007 13.3333C17.7007 13.3333 15.834 15.1999 15.834 17.4999C15.834 19.3666 17.0673 20.9166 18.7507 21.4499V25.8333C18.7507 26.5166 19.3173 27.0833 20.0007 27.0833C20.684 27.0833 21.2507 26.5166 21.2507 25.8333V21.4499C22.934 20.9166 24.1673 19.3666 24.1673 17.4999Z" fill="#0A7ABC"/>
</svg>
