<svg width="40" height="40" viewBox="0 0 40 40" fill="none" xmlns="http://www.w3.org/2000/svg">
<path opacity="0.4" d="M18.2667 3.4333L9.10008 6.86664C7.35008 7.5333 5.91675 9.59997 5.91675 11.4833V24.9833C5.91675 26.3333 6.80008 28.1166 7.88341 28.9166L17.0501 35.7666C18.6667 36.9833 21.3167 36.9833 22.9334 35.7666L32.1001 28.9166C33.1834 28.1 34.0667 26.3333 34.0667 24.9833V11.4833C34.0667 9.61664 32.6334 7.5333 30.8834 6.8833L21.7167 3.44997C20.7834 3.0833 19.2167 3.0833 18.2667 3.4333Z" fill="#ECF7FE"/>
<path d="M17.7666 23.7167C17.4499 23.7167 17.1332 23.6 16.8832 23.35L14.1999 20.6667C13.7166 20.1834 13.7166 19.3834 14.1999 18.9C14.6832 18.4167 15.4832 18.4167 15.9666 18.9L17.7666 20.7L24.0499 14.4167C24.5332 13.9334 25.3332 13.9334 25.8166 14.4167C26.2999 14.9 26.2999 15.7 25.8166 16.1834L18.6499 23.35C18.3999 23.6 18.0832 23.7167 17.7666 23.7167Z" fill="#ECF7FE"/>
</svg>
