<svg width="48" height="48" viewBox="0 0 48 48" fill="none" xmlns="http://www.w3.org/2000/svg">
<path opacity="0.4" d="M21.9196 4.11992L10.9196 8.23992C8.81961 9.03992 7.09961 11.5199 7.09961 13.7799V29.9799C7.09961 31.5999 8.15961 33.7399 9.45961 34.6999L20.4596 42.9199C22.3996 44.3799 25.5796 44.3799 27.5196 42.9199L38.5196 34.6999C39.8196 33.7199 40.8796 31.5999 40.8796 29.9799V13.7799C40.8796 11.5399 39.1596 9.03992 37.0596 8.25992L26.0596 4.13992C24.9396 3.69992 23.0596 3.69992 21.9196 4.11992Z" fill="#0A7ABC"/>
<path d="M21.3205 28.46C20.9405 28.46 20.5605 28.32 20.2605 28.02L17.0405 24.8C16.4605 24.22 16.4605 23.26 17.0405 22.68C17.6205 22.1 18.5805 22.1 19.1605 22.68L21.3205 24.84L28.8605 17.3C29.4405 16.72 30.4005 16.72 30.9805 17.3C31.5605 17.88 31.5605 18.84 30.9805 19.42L22.3805 28.02C22.0805 28.32 21.7005 28.46 21.3205 28.46Z" fill="#0A7ABC"/>
</svg>
