<svg width="48" height="48" viewBox="0 0 48 48" fill="none" xmlns="http://www.w3.org/2000/svg">
<path d="M38.9604 5.63988L39.5204 6.77987C39.8004 7.33987 40.5004 7.85988 41.1204 7.97988L41.8804 8.09987C44.1604 8.47987 44.7004 10.1599 43.0604 11.8199L42.3604 12.5199C41.9004 12.9999 41.6404 13.9199 41.7804 14.5599L41.8804 14.9799C42.5004 17.7399 41.0404 18.7999 38.6404 17.3599L38.1204 17.0599C37.5004 16.6999 36.5004 16.6999 35.8804 17.0599L35.3604 17.3599C32.9404 18.8199 31.4804 17.7399 32.1204 14.9799L32.2204 14.5599C32.3604 13.9199 32.1004 12.9999 31.6404 12.5199L30.9404 11.8199C29.3004 10.1599 29.8404 8.47987 32.1204 8.09987L32.8804 7.97988C33.4804 7.87988 34.2004 7.33987 34.4804 6.77987L35.0404 5.63988C36.1204 3.45988 37.8804 3.45988 38.9604 5.63988Z" fill="#0A7ABC"/>
<path opacity="0.4" d="M44 19.34V31C44 38 40 41 34 41H14C8 41 4 38 4 31V17C4 10 8 7 14 7H28.1C27.7 7.44 27.4 7.96001 27.22 8.54001C26.64 10.34 27.22 12.3 28.82 13.92L29.2 14.3C28.38 17.92 30.08 19.62 30.86 20.18C31.3 20.5 32.2 21 33.48 21C34.42 21 35.58 20.72 36.92 19.92L37 19.88L37.08 19.92C40.24 21.82 42.38 20.74 43.14 20.18C43.38 20.02 43.7 19.74 44 19.34Z" fill="#0A7ABC"/>
<path d="M23.9996 25.74C22.3196 25.74 20.6196 25.22 19.3196 24.16L13.0596 19.16C12.4196 18.64 12.2996 17.7 12.8196 17.06C13.3396 16.42 14.2795 16.3001 14.9195 16.8201L21.1795 21.8201C22.6995 23.0401 25.2795 23.0401 26.7995 21.8201C27.4395 21.3001 28.3796 21.4 28.8996 22.06C29.4196 22.7 29.3195 23.66 28.6595 24.16C27.3795 25.22 25.6796 25.74 23.9996 25.74Z" fill="#0A7ABC"/>
</svg>
