<svg width="40" height="40" viewBox="0 0 40 40" fill="none" xmlns="http://www.w3.org/2000/svg">
<path d="M32.5007 13.3333C34.8018 13.3333 36.6673 11.4679 36.6673 9.16667C36.6673 6.86548 34.8018 5 32.5007 5C30.1995 5 28.334 6.86548 28.334 9.16667C28.334 11.4679 30.1995 13.3333 32.5007 13.3333Z" fill="#0A7ABC"/>
<path d="M32.5007 13.3333C34.8018 13.3333 36.6673 11.4679 36.6673 9.16667C36.6673 6.86548 34.8018 5 32.5007 5C30.1995 5 28.334 6.86548 28.334 9.16667C28.334 11.4679 30.1995 13.3333 32.5007 13.3333Z" fill="#0A7ABC"/>
<path opacity="0.4" d="M34.534 15.5168C35.584 15.1834 36.6673 16.0001 36.6673 17.1168V25.8501C36.6673 31.6834 33.334 34.1834 28.334 34.1834H11.6673C6.66732 34.1834 3.33398 31.6834 3.33398 25.8501V14.1834C3.33398 8.3501 6.66732 5.8501 11.6673 5.8501H24.3506C25.434 5.8501 26.1673 6.85012 25.9673 7.90012C25.7673 8.88345 25.8007 9.93344 26.1007 11.0168C26.7173 13.2501 28.534 15.0334 30.7673 15.6168C32.084 15.9501 33.3673 15.8834 34.534 15.5168Z" fill="#0A7ABC"/>
<path d="M20 21.4501C18.6 21.4501 17.1833 21.0168 16.1 20.1335L10.8833 15.9668C10.35 15.5335 10.25 14.7501 10.6833 14.2168C11.1166 13.6834 11.8999 13.5835 12.4333 14.0168L17.6499 18.1835C18.9166 19.2001 21.0666 19.2001 22.3333 18.1835L24.2999 16.6168C24.8333 16.1835 25.6333 16.2668 26.05 16.8168C26.4833 17.3501 26.4 18.1501 25.85 18.5668L23.8833 20.1335C22.8166 21.0168 21.4 21.4501 20 21.4501Z" fill="#0A7ABC"/>
</svg>
