<svg width="40" height="40" viewBox="0 0 40 40" fill="none" xmlns="http://www.w3.org/2000/svg">
<path d="M20.1167 14.9166C20.0501 14.9166 19.9501 14.9166 19.8667 14.9166C18.1167 14.85 16.7334 13.4333 16.7334 11.6666C16.7334 9.86663 18.1834 8.41663 19.9834 8.41663C21.7834 8.41663 23.2334 9.88329 23.2334 11.6666C23.2501 13.4333 21.8667 14.8666 20.1167 14.9166Z" fill="#ECF7FE"/>
<path d="M15.4167 19.9333C13.2 21.4167 13.2 23.8333 15.4167 25.3167C17.9333 27 22.0667 27 24.5833 25.3167C26.8 23.8333 26.8 21.4167 24.5833 19.9333C22.0667 18.2667 17.95 18.2667 15.4167 19.9333Z" fill="#ECF7FE"/>
<path opacity="0.4" d="M30 3.33337H10C7.23333 3.33337 5 5.55004 5 8.28337V26.4667C5 29.2 7.23333 31.4167 10 31.4167H11.2667C12.6 31.4167 13.8667 31.9334 14.8 32.8667L17.65 35.6834C18.95 36.9667 21.0667 36.9667 22.3667 35.6834L25.2167 32.8667C26.15 31.9334 27.4333 31.4167 28.75 31.4167H30C32.7667 31.4167 35 29.2 35 26.4667V8.28337C35 5.55004 32.7667 3.33337 30 3.33337ZM20 8.41671C21.8 8.41671 23.25 9.88337 23.25 11.6667C23.25 13.4334 21.85 14.85 20.1167 14.9167C20.05 14.9167 19.95 14.9167 19.8667 14.9167C18.1167 14.85 16.7333 13.4334 16.7333 11.6667C16.75 9.88337 18.2 8.41671 20 8.41671ZM24.5833 25.3167C22.0667 27 17.9333 27 15.4167 25.3167C13.2 23.85 13.2 21.4167 15.4167 19.9334C17.95 18.25 22.0833 18.25 24.5833 19.9334C26.8 21.4167 26.8 23.8334 24.5833 25.3167Z" fill="#ECF7FE"/>
</svg>
