<svg width="48" height="48" viewBox="0 0 48 48" fill="none" xmlns="http://www.w3.org/2000/svg">
<path d="M24.1401 17.9001C24.0601 17.9001 23.9401 17.9001 23.8401 17.9001C21.7401 17.8201 20.0801 16.1201 20.0801 14.0001C20.0801 11.8401 21.8201 10.1001 23.9801 10.1001C26.1401 10.1001 27.8801 11.8601 27.8801 14.0001C27.9001 16.1201 26.2401 17.8401 24.1401 17.9001Z" fill="#0A7ABC"/>
<path d="M18.5009 23.9202C15.8409 25.7002 15.8409 28.6002 18.5009 30.3802C21.5209 32.4002 26.4809 32.4002 29.5009 30.3802C32.1609 28.6002 32.1609 25.7002 29.5009 23.9202C26.4809 21.9202 21.5409 21.9202 18.5009 23.9202Z" fill="#0A7ABC"/>
<path opacity="0.4" d="M36 4H12C8.68 4 6 6.66 6 9.94V31.76C6 35.04 8.68 37.7 12 37.7H13.52C15.12 37.7 16.64 38.32 17.76 39.44L21.18 42.82C22.74 44.36 25.28 44.36 26.84 42.82L30.26 39.44C31.38 38.32 32.92 37.7 34.5 37.7H36C39.32 37.7 42 35.04 42 31.76V9.94C42 6.66 39.32 4 36 4ZM24 10.1C26.16 10.1 27.9 11.86 27.9 14C27.9 16.12 26.22 17.82 24.14 17.9C24.06 17.9 23.94 17.9 23.84 17.9C21.74 17.82 20.08 16.12 20.08 14C20.1 11.86 21.84 10.1 24 10.1ZM29.5 30.38C26.48 32.4 21.52 32.4 18.5 30.38C15.84 28.62 15.84 25.7 18.5 23.92C21.54 21.9 26.5 21.9 29.5 23.92C32.16 25.7 32.16 28.6 29.5 30.38Z" fill="#0A7ABC"/>
</svg>
