<svg width="48" height="48" viewBox="0 0 48 48" fill="none" xmlns="http://www.w3.org/2000/svg">
<path opacity="0.4" d="M37.8802 10.84L27.5402 4.86C25.5602 3.72 22.4602 3.72 20.4802 4.86L10.0402 10.88C5.90016 13.68 5.66016 14.1 5.66016 18.56V29.42C5.66016 33.88 5.90016 34.32 10.1202 37.16L20.4602 43.14C21.4602 43.72 22.7402 44 24.0002 44C25.2602 44 26.5402 43.72 27.5202 43.14L37.9602 37.12C42.1002 34.32 42.3402 33.9 42.3402 29.44V18.56C42.3402 14.1 42.1002 13.68 37.8802 10.84Z" fill="#0A7ABC"/>
<path d="M24 30.5C27.5899 30.5 30.5 27.5899 30.5 24C30.5 20.4101 27.5899 17.5 24 17.5C20.4101 17.5 17.5 20.4101 17.5 24C17.5 27.5899 20.4101 30.5 24 30.5Z" fill="#0A7ABC"/>
</svg>
