<svg width="40" height="40" viewBox="0 0 40 40" fill="none" xmlns="http://www.w3.org/2000/svg">
<path d="M19.9993 19.9999C24.6017 19.9999 28.3327 16.269 28.3327 11.6666C28.3327 7.06421 24.6017 3.33325 19.9993 3.33325C15.397 3.33325 11.666 7.06421 11.666 11.6666C11.666 16.269 15.397 19.9999 19.9993 19.9999Z" fill="#0A7ABC"/>
<path opacity="0.4" d="M19.9997 24.1667C11.6497 24.1667 4.84961 29.7667 4.84961 36.6667C4.84961 37.1334 5.21628 37.5001 5.68294 37.5001H34.3164C34.783 37.5001 35.1497 37.1334 35.1497 36.6667C35.1497 29.7667 28.3497 24.1667 19.9997 24.1667Z" fill="#0A7ABC"/>
<path d="M35.7151 24.5668C34.2151 23.0668 33.0318 23.5501 32.0151 24.5668L26.1151 30.4669C25.8817 30.7002 25.6651 31.1335 25.6151 31.4501L25.2984 33.7001C25.1818 34.5168 25.7484 35.0835 26.5651 34.9668L28.8151 34.6501C29.1317 34.6001 29.5818 34.3835 29.7984 34.1501L35.6984 28.2502C36.7317 27.2502 37.2151 26.0668 35.7151 24.5668Z" fill="#0A7ABC"/>
</svg>
